name C:\Users\u0101727\Documents\MyRepositories\upper-imu-dc\OpenSim\subject0\MA\ResultsMA\grid_4nodes_9dim\angles_7.mot
datacolumns 10
datarows 28
range 700.01000000 700.28000000
endheader 
time	clav_prot	clav_elev	scapula_abduction	scapula_elevation	scapula_upward_rot	scapula_winging	plane_elv	shoulder_elv	axial_rot	
        700.01000000	        -50.00000000	        -10.00000000	         15.00000000	         -3.33333333	         30.00000000	        -20.00000000	        -30.00000000	        -10.00000000	        -30.00000000	
        700.02000000	        -38.33333333	        -10.00000000	         15.00000000	         -3.33333333	         30.00000000	        -20.00000000	        -30.00000000	        -10.00000000	        -30.00000000	
        700.03000000	        -26.66666667	        -10.00000000	         15.00000000	         -3.33333333	         30.00000000	        -20.00000000	        -30.00000000	        -10.00000000	        -30.00000000	
        700.04000000	        -15.00000000	        -10.00000000	         15.00000000	         -3.33333333	         30.00000000	        -20.00000000	        -30.00000000	        -10.00000000	        -30.00000000	
        700.05000000	        -50.00000000	          0.00000000	         15.00000000	         -3.33333333	         30.00000000	        -20.00000000	        -30.00000000	        -10.00000000	        -30.00000000	
        700.06000000	        -38.33333333	          0.00000000	         15.00000000	         -3.33333333	         30.00000000	        -20.00000000	        -30.00000000	        -10.00000000	        -30.00000000	
        700.07000000	        -26.66666667	          0.00000000	         15.00000000	         -3.33333333	         30.00000000	        -20.00000000	        -30.00000000	        -10.00000000	        -30.00000000	
        700.08000000	        -15.00000000	          0.00000000	         15.00000000	         -3.33333333	         30.00000000	        -20.00000000	        -30.00000000	        -10.00000000	        -30.00000000	
        700.09000000	        -50.00000000	         10.00000000	         15.00000000	         -3.33333333	         30.00000000	        -20.00000000	        -30.00000000	        -10.00000000	        -30.00000000	
        700.10000000	        -38.33333333	         10.00000000	         15.00000000	         -3.33333333	         30.00000000	        -20.00000000	        -30.00000000	        -10.00000000	        -30.00000000	
        700.11000000	        -26.66666667	         10.00000000	         15.00000000	         -3.33333333	         30.00000000	        -20.00000000	        -30.00000000	        -10.00000000	        -30.00000000	
        700.12000000	        -15.00000000	         10.00000000	         15.00000000	         -3.33333333	         30.00000000	        -20.00000000	        -30.00000000	        -10.00000000	        -30.00000000	
        700.13000000	        -50.00000000	         20.00000000	         15.00000000	         -3.33333333	         30.00000000	        -20.00000000	        -30.00000000	        -10.00000000	        -30.00000000	
        700.14000000	        -38.33333333	         20.00000000	         15.00000000	         -3.33333333	         30.00000000	        -20.00000000	        -30.00000000	        -10.00000000	        -30.00000000	
        700.15000000	        -26.66666667	         20.00000000	         15.00000000	         -3.33333333	         30.00000000	        -20.00000000	        -30.00000000	        -10.00000000	        -30.00000000	
        700.16000000	        -15.00000000	         20.00000000	         15.00000000	         -3.33333333	         30.00000000	        -20.00000000	        -30.00000000	        -10.00000000	        -30.00000000	
        700.17000000	        -50.00000000	        -10.00000000	        -40.00000000	          3.33333333	         30.00000000	        -20.00000000	        -30.00000000	        -10.00000000	        -30.00000000	
        700.18000000	        -38.33333333	        -10.00000000	        -40.00000000	          3.33333333	         30.00000000	        -20.00000000	        -30.00000000	        -10.00000000	        -30.00000000	
        700.19000000	        -26.66666667	        -10.00000000	        -40.00000000	          3.33333333	         30.00000000	        -20.00000000	        -30.00000000	        -10.00000000	        -30.00000000	
        700.20000000	        -15.00000000	        -10.00000000	        -40.00000000	          3.33333333	         30.00000000	        -20.00000000	        -30.00000000	        -10.00000000	        -30.00000000	
        700.21000000	        -50.00000000	          0.00000000	        -40.00000000	          3.33333333	         30.00000000	        -20.00000000	        -30.00000000	        -10.00000000	        -30.00000000	
        700.22000000	        -38.33333333	          0.00000000	        -40.00000000	          3.33333333	         30.00000000	        -20.00000000	        -30.00000000	        -10.00000000	        -30.00000000	
        700.23000000	        -26.66666667	          0.00000000	        -40.00000000	          3.33333333	         30.00000000	        -20.00000000	        -30.00000000	        -10.00000000	        -30.00000000	
        700.24000000	        -15.00000000	          0.00000000	        -40.00000000	          3.33333333	         30.00000000	        -20.00000000	        -30.00000000	        -10.00000000	        -30.00000000	
        700.25000000	        -50.00000000	         10.00000000	        -40.00000000	          3.33333333	         30.00000000	        -20.00000000	        -30.00000000	        -10.00000000	        -30.00000000	
        700.26000000	        -38.33333333	         10.00000000	        -40.00000000	          3.33333333	         30.00000000	        -20.00000000	        -30.00000000	        -10.00000000	        -30.00000000	
        700.27000000	        -26.66666667	         10.00000000	        -40.00000000	          3.33333333	         30.00000000	        -20.00000000	        -30.00000000	        -10.00000000	        -30.00000000	
        700.28000000	        -15.00000000	         10.00000000	        -40.00000000	          3.33333333	         30.00000000	        -20.00000000	        -30.00000000	        -10.00000000	        -30.00000000	
